# xmcd
#
# Track frame offsets: 
#        150
#        12581
#        27892
#        38987
#        53317
#        64835
#        79753
#        90801
#        104056
#        116786
#        130607
#
# Disc length: 1967 seconds
#
# Revision: 0
# Processed by: cddbd v1.5.2PL0 Copyright (c) Steve Scherf et al.
# Submitted via: ExactAudioCopyFreeDBPlugin 1.0
#
DISCID=8407ad0b
DTITLE=Suzy Thompson and Del Rey - Communiqué
DYEAR=1900
DGENRE=
TTITLE0=Everybody Rag With Me
TTITLE1=Misery Blues
TTITLE2=Everybody Two-step
TTITLE3=See You In Seaview
TTITLE4=I’m Going to Live the Life I Sing About In My Song
TTITLE5=At The Christmas Ball
TTITLE6=The Wall Charleston
TTITLE7=Tipping Through
TTITLE8=Alabama Jubilee
TTITLE9=Different Way Blues
TTITLE10=Monongahela River Waltz
EXTD=
EXTT0=
EXTT1=
EXTT2=
EXTT3=
EXTT4=
EXTT5=
EXTT6=
EXTT7=
EXTT8=
EXTT9=
EXTT10=
PLAYORDER=
